<?xml version="1.0" standalone="no"?><!DOCTYPE svg PUBLIC "-//W3C//DTD SVG 1.1//EN" "http://www.w3.org/Graphics/SVG/1.1/DTD/svg11.dtd"><svg class="icon" width="200px" height="200.00px" viewBox="0 0 1024 1024" version="1.1" xmlns="http://www.w3.org/2000/svg"><path fill="#d81e06" d="M882.005333 272.099556V143.985778c0-17.692444-14.279111-32-32-32H174.023111c-17.720889 0-32 14.307556-32 32.028444v128.085334a31.971556 31.971556 0 0 0-30.008889 31.886222v131.697778c-0.056889 24.234667 4.835556 48.184889 14.392889 70.428444 4.295111 10.183111 9.614222 19.797333 15.616 28.899556v344.974222c0 17.635556 14.279111 32 32 32h273.976889v-175.985778h128v176.014222h274.005333c17.720889 0 32-14.307556 32-32.028444V535.04a178.744889 178.744889 0 0 0 30.008889-99.299556v-131.697777c0-17.009778-13.312-30.919111-30.008889-31.914667z m-71.992889 568.007111H640V704c0-17.692444-14.279111-32-32-32h-192c-17.692444 0-32 14.307556-32 32v136.106667H214.016V597.902222c2.901333 1.422222 5.888 2.787556 8.988444 3.982222 22.300444 9.415111 45.994667 14.108444 70.4 14.108445a180.622222 180.622222 0 0 0 70.4-14.08 182.840889 182.840889 0 0 0 38.684445-22.101333 0.654222 0.654222 0 0 1 0.625778 0c11.946667 8.931556 24.945778 16.355556 38.684444 22.072888 22.300444 9.415111 46.023111 14.108444 70.4 14.108445a180.622222 180.622222 0 0 0 70.4-14.08 182.840889 182.840889 0 0 0 38.712889-22.101333 0.654222 0.654222 0 0 1 0.597333 0c11.946667 8.931556 24.945778 16.355556 38.684445 22.072888 22.328889 9.415111 46.023111 14.108444 70.428444 14.108445a180.622222 180.622222 0 0 0 79.388445-18.090667v242.204445h-0.398223z m0-568.120889H214.016V184.035556h595.996444v87.978666z" /></svg>